<svg width="202" height="59" viewBox="0 0 202 59" fill="none" xmlns="http://www.w3.org/2000/svg">
<path d="M88.6667 46.7083C92.0583 46.7083 94.8333 44.4958 94.8333 41.7917V17.2083C94.8333 14.5042 92.0583 12.2917 88.6667 12.2917C85.275 12.2917 82.5 14.5042 82.5 17.2083V41.7917C82.5 44.4958 85.275 46.7083 88.6667 46.7083ZM107.167 17.2083V41.7917C107.167 44.4958 109.942 46.7083 113.333 46.7083C116.725 46.7083 119.5 44.4958 119.5 41.7917V17.2083C119.5 14.5042 116.725 12.2917 113.333 12.2917C109.942 12.2917 107.167 14.5042 107.167 17.2083Z" fill="#F8F8F8"/>
<path d="M157.208 40V18L175.958 29L157.208 40ZM178.042 40V18L196.792 29L178.042 40Z" fill="#F8F8F8"/>
<path d="M41.6146 38.1208L28.698 30.5125C28.073 30.1458 27.7605 29.6417 27.7605 29C27.7605 28.3583 28.073 27.8542 28.698 27.4875L41.6146 19.8792C42.3091 19.4819 43.0209 19.4587 43.75 19.8095C44.4792 20.1615 44.8438 20.7042 44.8438 21.4375V36.5625C44.8438 37.2958 44.4792 37.8458 43.75 38.2125C43.0209 38.5792 42.3091 38.5486 41.6146 38.1208ZM20.7813 38.1208L7.86462 30.5125C7.23962 30.1458 6.92712 29.6417 6.92712 29C6.92712 28.3583 7.23962 27.8542 7.86462 27.4875L20.7813 19.8792C21.4757 19.4819 22.1875 19.4587 22.9167 19.8095C23.6459 20.1615 24.0105 20.7042 24.0105 21.4375V36.5625C24.0105 37.2958 23.6459 37.8458 22.9167 38.2125C22.1875 38.5792 21.4757 38.5486 20.7813 38.1208Z" fill="#F8F8F8"/>
</svg>
